<svg xmlns="http://www.w3.org/2000/svg" width="125" height="86"><path fill-rule="evenodd" clip-rule="evenodd" fill="#C99700" d="M123.95 26.923c-.775-2.422-7.477-16.264-8.305-17.732a4.004 4.004 0 0 0-2.533-1.914C112.078 7.015 87.496.865 65.065.83c-6.762-.008-17.013.498-27.45 2.976C25.906 6.58 16.786 11.17 10.5 17.445 3.82 24.117.433 32.567.433 42.569c0 10.695 5.152 21.213 14.138 28.842 10.598 9.002 26.054 13.76 44.699 13.76 21.583 0 50.099-5.17 54.542-7.197a4.104 4.104 0 0 0 1.972-1.912c.003-.002.016-.008.019-.016 0 0 5.01-9.908 5.646-11.113.635-1.203 1.865-3.773 2.503-5.801.637-2.033.857-29.536-.002-32.209z"/><g fill-rule="evenodd" clip-rule="evenodd"><path fill="#C2C2C2" d="M68.258 40.833c.076.08.156.153.232.23-.076-.077-.156-.15-.232-.23z"/><path fill="#CCC" d="M75.97 17.99l8.636-5.155c-8.273 1.432-18.603 5.05-18.603 5.05-20.609.299-30.972 7.873-35.092 11.986-4.417 6.458-3.838 12.762-3.838 12.762.384 17.146 10.301 24.235 18.46 27.173a74.487 74.487 0 0 0 6.164 1.615c2.075.352 3.618.434 4.219.451-3.273-2.102-4.271-4.764-3.893-7.596-.026.051-.043.076-.043.076.021-.076.043-.152.062-.232.138-.896.407-1.812.786-2.736a38.623 38.623 0 0 1 2.037-5.012c-.098.191-.195.391-.293.594v.004c.82-4.383 6.023-11.777 6.023-11.777l.138-11.77c.545-3.832 8.054-7.707 8.054-7.707l-.863 1.138c-.002.003-.008.006-.016.011.016-.011.023-.019.023-.019-3.694 4.518-2.908 7.249-2.908 7.249.506 3.033 1.726 5.195 3.234 6.736 2.064 1.228 6.616 3.206 12.735 1.627 0 0 6.434-1.368 15.861-2.247l-.58.188c-4.109 2.054-7.54 3.422-7.54 3.422l1.681.625 4.812 1.022c3.152.959 2.877 2.533 2.877 2.533l.138 2.395c1.741.434 3.348 1.775 3.938 2.305l6.116-1.566 1.233-2.053 3.578.145-.053-.383c-.548-1.6-1.323-6.995-2.273-8.046-4.78-5.299-11.548-10.182-11.548-10.182-1.336-.725-2.475-1.71-3.355-2.623.935 2.679 1.281 4.944 1.281 4.944l-.199-.262s-.59-1.705-1.979-4.722l-.031-1.006a14.942 14.942 0 0 1-1.091-1.467c-3.284-3.422-12.045-7.461-12.045-7.461l-6.723.427.88-.456zm12.902 7.604l-8.348-1.857-1.95-.41 10.092 1.241 6.132 3.946.204 1.362-6.13-4.282z"/></g><path fill-rule="evenodd" clip-rule="evenodd" fill="#002855" d="M75.978 18.009l10.126-6.071s-10.115 1.181-17.621 3.764l-1.062.367c-10.081.096-17.907 2.086-17.907 2.086-24.132 6.238-22.44 24.479-22.44 24.479.656 29.276 29.121 29.245 29.121 29.245 23.616 2.67 50.932-6.254 50.932-6.254l3.409-4.137c6.293-7.111 8.942-6.59 8.942-6.59 2.346.715.265 3.256-.468 4.855-.73 1.6-6.902 14.488-6.902 14.488-3.386 1.543-30.754 6.822-52.838 6.822-39.128 0-54.73-21.253-54.73-38.494 0-32.535 39.662-37.661 60.518-37.635 22.182.034 47.05 6.322 47.05 6.322l7.344 16.044s2.888 4.762-1.54 3.518l-10.785-10.856-12.568-2.639c-4.174.215-1.329 2.874-1.329 2.874 3.42 2.057 4.774 4.375 4.774 4.375l3.123 2.9c11.743 8.264 13.622 12.654 13.622 12.654l1.096 5.337.614 6.262-4.994.035-1.268 1.922-7.289 1.844-10.779-2.953c4.104-2.258 1.548-4.217 1.548-4.217l-7.641-2.832-10.265 3.286-7.514-1.221C59.169 49.571 51.98 64.353 51.98 64.353c3.103-12.711 10.852-18.418 10.852-18.418l-.648-12.311c.648-3.276 5.748-6.778 5.748-6.778-3.694 4.518-2.908 7.249-2.908 7.249 1.853 11.09 13.244 10.55 13.244 10.55C90.177 41.154 96.275 40.4 96.275 40.4c-4.109 2.054-7.54 3.422-7.54 3.422l8.255 3.072.577 4.113 4.558 1.713 6.172-1.584 1.233-2.053 3.578.145-1.099-7.732c-6.624-8.157-13.138-12.32-13.138-12.32l-2.861-2.337s-2.419-3.224-3.024-3.652c-4.092-2.908-11.053-6.41-11.053-6.41l-.659.201-5.296 1.031z"/><g fill-rule="evenodd" clip-rule="evenodd" fill="#002855"><path d="M94.594 27.126l.408 2.75-6.13-4.282-8.348-1.857 8.146 3.535s3.66 5.783 6.249 4.021l2.04 1.385c.001-.001-.694-2.021-2.365-5.552zM110.572 42.318l.686 3.626-4.039-7.135z"/></g><path fill="#FFF" d="M53.799 48.397s4.107-4.654 4.38-10.404c0 0-8.738 4.367-17.652 12.031-2.197 1.803-2.126.658-1.855-.262 5.96-8.101 17.822-22.091 30.494-24.968 0 0-2.009 11.415 13.223 12.158l13.046-.389-7.52-4.764s-6.418-5.452-17.177-9.208c-.895-.519-.542-.929-.407-1.048 6.347-.088 16.502.847 20.979 4.332 0 0-1.35-2.569-9.454-6.333-1.442-.646-3.882-.662-6.243-.463v-.003c-3.057.071-1.987-.648-1.871-1.029l3.835-2.713-12.521 3.679c-9.612 1.328-25.18 5.399-37.304 17.759-.905 3.409-.678 5.859-.678 5.859.175 7.755 2.297 13.456 5.333 17.646 3.419.736 12.841 1.273 21.392-11.88z"/><path fill-rule="evenodd" clip-rule="evenodd" fill="#FFF" d="M106.298 46.354h2.978c-.803-2.82-2.623-7.985-8.041-11.474l-4.274-2.204 8.205 10.393-4.926-2.054-10.139 2.242c-.529.223-.922.387-1.146.477l4.129-.006c9.205 2.556 7.363 6.289 7.363 6.289s3.612.654 4.999.238c1.366-.412 3.983-1.938 2.872-2.326l-6.845-.139s3.539-1.738 4.825-1.436z"/><g fill="#FFF"><path d="M42.543 72.415s-20.247-7.934-20.247-29.973c0-17.759 20.139-26.484 20.139-26.484S19.057 21.83 19.057 42.311c0 24.112 23.486 30.104 23.486 30.104z"/><path fill-rule="evenodd" clip-rule="evenodd" d="M56.47 76.397s37.299-.703 52.816-7.812l7.426-8.893-6.206 10.113c0 .001-14.49 8.198-54.036 6.592zM75.536 10.651c-16.965-.548-20.665.741-20.533.887 0 0 5.672-.461 15.607.489l4.926-1.376zM89.754 13.388c6.714.395 15.461 1.863 19.532 4.113l7.82 9.289-7.088-11.245s-5.11-2.266-17.909-3.777l-2.355 1.62z"/></g><path fill-rule="evenodd" clip-rule="evenodd" fill="#FFF" d="M92.823 29.733a.771.771 0 0 0-.092.359.79.79 0 0 0 .785.789.79.79 0 0 0 .76-.585c-.365.075-.992-.267-1.453-.563z"/></svg>