<svg xmlns="http://www.w3.org/2000/svg" width="100" height="100"><path fill="#335379" d="M72.993 35.974s15.672-8.525 4.513-16.242C67.335 12.702 60.623 35.83 60.623 35.83h-1.165S53.176 11.213 42.38 19.732c-9.41 7.424 5.065 16.097 5.065 16.097h-27.04v17.523h6.597v28.709h63.077V53.353h6.93V35.974H72.993zm1.782-10.641c4.809 3.525-8.119 7.818-8.119 7.818s3.31-11.344 8.119-7.818zm-29.72.368c3.556-5.5 8.358 7.447 8.358 7.447s-10.944-3.446-8.358-7.447zM55.604 76.84H32.533V54.839h23.071V76.84zm29.186 0H62.666V54.839H84.79V76.84zm6.91-28.38H26.213V41.4H91.7v7.06z"/></svg>