<svg xmlns="http://www.w3.org/2000/svg" width="100" height="100"><path fill="#FFF" d="M50.197.67C22.953.67.867 22.756.867 50c0 27.243 22.086 49.33 49.331 49.33 27.243 0 49.33-22.087 49.33-49.33C99.527 22.756 77.44.67 50.197.67zm0 91.856C26.71 92.526 7.67 73.485 7.67 50c0-23.486 19.04-42.526 42.527-42.526 23.485 0 42.526 19.04 42.526 42.526.001 23.485-19.04 42.526-42.526 42.526z"/><path fill="#FFF" d="M47.619 73.602l22.699-24.246-23.774-22.958-4.168 4.317 16.468 15.903H29.682v6h29.374l-15.824 16.89z"/></svg>