<svg xmlns="http://www.w3.org/2000/svg" width="75" height="914.125"><path fill="#DEB209" d="M12.394 271.94l.448.002s-.232 7.424-5.046 12.236c-4.814 4.816-12.235 5.045-12.235 5.045l-.227-17.166h-.004l.002-.117-.002-.119h.004l.227-17.166s7.421.229 12.235 5.047c4.813 4.811 5.046 12.234 5.046 12.234l-.448.004zm-17.066-28.189s10.259-1.444 20.061 8.356c9.802 9.803 8.357 20.062 8.357 20.062l9.023-.209s.72-14.873-10.875-26.468C10.296 233.897-4.583 234.61-4.583 234.61l-.089 9.141m.115-20.532s19.604-.581 34.451 14.268c14.848 14.85 14.152 34.335 14.152 34.335l9.627-.114s2.086-22.042-16.937-41.063c-19.023-19.025-41.06-17.403-41.06-17.403l-.233 9.977"/><path fill="#EC8C22" d="M38.518 127.121l-8.021-13.963s-1.746-1.738-3.193-1.654c-1.447.085-2.754.087-4.354 3.81-1.604 3.726-8.639 20.109-21.712 27.621l-17.288 9.935s-5.01 3.646-2.068 8.77l4.318 7.513s3.411 3.657 7.347 1.397l5.061-2.908s2.418 11.689 14.237 18.92c0 0 11.223.658 13.249-9.482 0 0-9.49.406-10.07-7.113 0 0-7.688-2.967-1.655-10.688 0 0 13.254-7.197 35.062-3.088 0 0 4.215-2.422 2.094-6.439-2.121-4.015-8.002-13.924-8.002-13.924s4.521-2.213 1.938-6.712c-2.586-4.499-6.943-1.995-6.943-1.995m7.839 23.727c-18.73-3.632-33.73 3.453-33.73 3.453l-5.314-9.25c15.714-13.33 19.947-27.438 19.947-27.438l19.097 33.235z"/><path fill="#78BE43" d="M27.555 89.679L-7.184 73.551c-.494-.23-3.047-1.626-4.744-6.588-1.968-5.75 4.026-10.68 4.717-11.225l27.285-22.12 8.793-18.94-2.473-1.146a2.632 2.632 0 0 1 2.217-4.774l7.247 3.365-11.524 24.815L-3.924 59.85c-1.266 1.01-3.633 3.633-3.025 5.409.878 2.566 1.905 3.429 2.098 3.572l33.771 15.68c.781.013 2.203-.095 3.174-.702 1.814-1.133 2.882-2.347 2.966-5.201.119-3.966-.577-36.029-.583-36.353l-.014-.611 11.521-24.82 7.229 3.357a2.631 2.631 0 0 1-2.216 4.773l-2.459-1.142-8.792 18.94c.101 4.613.687 32.176.569 36.011-.166 5.583-3.185 8.103-5.438 9.511-2.904 1.812-6.492 1.493-6.892 1.451l-.43-.046zm4.686-11.556s-.168 2.483-1.504 3.24c-1.337.758-2.233.145-2.233.145L-2.273 67.219s-1.146-.926-1.504-2.273c-.359-1.348 1.354-2.916 1.354-2.916l19.132-15.336 15.063 6.994.469 24.435M8.062 66.458a3.742 3.742 0 0 0 4.97-1.819 3.744 3.744 0 1 0-4.97 1.819M19.627 65.3a6.039 6.039 0 1 0 5.084-10.955A6.039 6.039 0 0 0 19.627 65.3"/><path fill="#00B5E1" d="M44.188 325.555s-10.493-13.361-20.999-6.685c-10.506 6.685-8.593 21.959-8.593 21.959s-19.1-4.731-25.774-11.916c-6.688-7.171-10.632-9.771-8.28 3.01 2.504 13.543 6.365 13.356 6.365 13.356l-14.002.646s19.1 12.411 22.914 13.366c3.819.955-9.549-2.866-11.455 3.812-1.916 6.693 11.133 9.23 18.776 9.23 7.637 0-15.601 7.639-24.979 9.547 0 0 77.489 17.188 66.026-46.78l9.554-1.904-5.734-4.452 5.734-5.099-9.553 1.91zM53.157 524.07l-21.561 6.315 4.791 4.412-18.007 17.961L4.646 538.92-9 552.484v15.577l13.56-12.989 13.874 13.981 26.08-26.774 4.961 4.569z"/><g fill="#00B5E1"><path d="M37.352 618.858H1.066c-5.636 0-10.206 4.566-10.206 10.206v7.26H8.2s4.331-5.408 11.77-5.408 12.092 5.408 12.092 5.408h15.495v-7.26c0-5.636-4.571-10.206-10.205-10.206zm2.994 12.417c0 .939-.765 1.706-1.707 1.706H32.41a1.709 1.709 0 0 1-1.707-1.706v-6.23a1.71 1.71 0 0 1 1.707-1.707h6.229a1.71 1.71 0 0 1 1.707 1.707v6.23z"/><circle cx="20.166" cy="647.32" r="12.613"/><path d="M34.822 639.99a16.318 16.318 0 0 1 1.729 7.33c0 9.051-7.337 16.388-16.387 16.388-9.051 0-16.387-7.337-16.387-16.388 0-2.639.626-5.125 1.732-7.33H-9.14v25.048c0 5.636 4.569 10.205 10.206 10.205h36.286c5.637 0 10.205-4.569 10.205-10.205V639.99H34.822z"/></g><g fill="#DEB209"><path d="M13.635 728.242c-17.467 0-20.354 15.729-14.941 23.852 5.415 8.124 6.317 13.047 6.498 14.194s.181 2.771 1.444 2.771h7.108"/><path d="M13.313 728.242c17.468 0 20.356 15.729 14.941 23.852-5.415 8.124-6.317 13.047-6.498 14.194-.181 1.147-.181 2.771-1.444 2.771h-7.106M21.436 773.12c0 .848-.687 1.535-1.535 1.535H6.726a1.533 1.533 0 1 1 0-3.068h13.175c.848 0 1.535.686 1.535 1.533zM21.436 777.911c0 .847-.687 1.533-1.535 1.533H6.726a1.533 1.533 0 1 1 0-3.067h13.175c.848 0 1.535.685 1.535 1.534zM19.289 782.715c0 .85-.688 1.535-1.535 1.535H8.873a1.533 1.533 0 1 1 0-3.068h8.881c.847 0 1.535.686 1.535 1.533zM51.162 747.118a2.989 2.989 0 0 1-2.988 2.987H36.97a2.988 2.988 0 0 1 0-5.975h11.204a2.988 2.988 0 0 1 2.988 2.988zM42.605 717.941a2.99 2.99 0 0 1-.244 4.219l-8.365 7.453a2.988 2.988 0 1 1-3.976-4.463l8.365-7.453a2.99 2.99 0 0 1 4.22.244zM-24.187 747.118a2.989 2.989 0 0 0 2.988 2.987h11.203a2.988 2.988 0 0 0 0-5.975h-11.203a2.988 2.988 0 0 0-2.988 2.988zM-15.63 717.941a2.989 2.989 0 0 0 .244 4.219l8.365 7.453a2.99 2.99 0 0 0 3.976-4.463l-8.365-7.453a2.99 2.99 0 0 0-4.22.244zM13.347 706.943a2.988 2.988 0 0 1 2.977 2.999l-.041 11.204a2.99 2.99 0 0 1-5.978-.022l.041-11.203a2.99 2.99 0 0 1 3.001-2.978z"/></g><path fill="#EB8B23" d="M14.53 822.158l-28.489 52.226H46.37l-31.84-52.226zm.69 45.978c-2.202 0-3.986-1.796-3.986-4.011 0-2.216 1.784-4.012 3.986-4.012s3.986 1.796 3.986 4.012c0 2.215-1.784 4.011-3.986 4.011zm1.875-10.416h-3.75l-2.301-10.986v-4.964h8.354v4.964l-2.303 10.986z"/><path fill="#002855" d="M-16.312 497.042l-.508-2.997c-.048-.284-4.664-28.799 9.907-56.182 5.745-10.796 16.185-18.506 31.031-22.915 11.575-3.438 22.25-3.705 25.247-3.705.564 0 .867.009.867.009l1.352.041-4.246 6.368 12.443-2.818v.939c0 6.862-5.447 14.326-6.891 16.183l5.143 9.781.25 8.448 9.033 21.42-3.066 1.395c-1.295 7.625-10.135 15.584-10.517 15.925l-.252.225-.335-.039c-10.4-1.229-17.58-4.623-21.337-10.088-3.577-5.201-2.798-10.51-2.549-11.752-.731-.854-6.403-3.117-9.606-3.363-2.883-.222-5.852-2.358-6.871-3.158-19.82 8.509-28.069 33.145-28.15 33.395l-.945 2.888zm65.124-84.296c-3.548.035-13.511.445-24.267 3.64C10.099 420.677-.04 428.14-5.588 438.568c-11.601 21.801-10.838 44.331-10.104 52.257 2.904-6.97 11.715-24.744 28.312-31.625l.425-.177.35.3c.033.028 3.387 2.868 6.375 3.098 1.599.123 4.155.785 6.511 1.687 4.235 1.619 4.435 2.619 4.5 2.947l.033.166-.041.164c-.014.056-1.334 5.577 2.288 10.821 3.467 5.021 10.167 8.177 19.919 9.383 1.464-1.367 8.975-8.67 9.845-15.193l.056-.411 2.486-1.131-8.611-20.42-.262-8.319-5.441-10.26.342-.417c.066-.08 6.306-7.741 6.85-14.708l-14.236 3.224 4.803-7.208z"/><g fill="#002855"><path d="M52.193 483.946l-.1.057s1.404.438.1-.057z"/><path d="M54.523 452.06l-.27-9.367-6.615-11.611s4.687-5.781 6.209-10.125l-13.904 2.025 3.645-7.426s-36.856 1.35-47.656 28.351c0 0 5.265-8.64 14.851-14.175 0 0-18.496 18.63-23.761 48.736 0 0 7.831-17.01 27.001-24.165 0 0 4.185 4.59 10.732 5.67s9.248 6.209 9.383 7.02c0 0-3.233 9.497 9.45 13.906 5.316 1.849 7.665 2.69 8.605 3.048.847-.488 7.082-4.383 7.46-13.443l2.709-1.083c0-.001-3.924-11.504-7.839-17.361zm-5.535-28.404l-2.768 4.466-2.768-3.251 5.536-1.215zm4.995 54.677c-2.295 4.32-8.775-1.215-8.775-1.215-12.098-1.561-7.021-11.206-7.021-11.206l-5.94-5.535 5.94-2.295c-16.335-1.215-21.195-3.645-22.41-12.15s6.075-14.851 6.075-14.851c-9.18 2.699-10.666 16.741-10.666 16.741l-11.88 11.07c9.585-38.881 37.261-39.557 37.261-39.557-5.711 3.694-4.455 11.341-4.455 11.341s2.565-2.7 5.265-1.645 7.425 12.039 7.425 12.039c.945-.271 1.418-5.535 1.418-5.535l5.197 7.966.405 8.558c1.08 1.808 6.886 16.013 6.886 16.013l-1.891.405c.947 3.51-.539 5.536-2.834 9.856z"/></g><path fill="#002855" d="M45.613 467.128l3.375 1.35v4.724zM39.133 448.227c-2.16-4.051-10.8-12.825-10.8-12.825l5.265 8.777c-1.485 4.727 2.835 5.533 3.645 5.69.81.157 2.025 3.087 2.025 3.087l1.351-6.079-1.486 1.35zm-2.835.202a.743.743 0 1 1 0-1.485.743.743 0 0 1 0 1.485z"/></svg>