<svg xmlns="http://www.w3.org/2000/svg" width="100" height="16.157"><g fill="#FFF"><path d="M58.865 4.877c.101.661 1.101 5.405 1.101 5.405h-2.195l1.094-5.405zm-8.328 11.03h5.806l.438-1.948h4.144l.553 1.948h5.806L61.846.403h-6.087l-5.222 15.504zM36.284.402h5.624c5.107 0 9.007 2.277 9.007 7.974 0 4.591-3.18 7.529-7.645 7.529l-6.986-.009V.402zm5.524 11.052h.376c1.843 0 3.207-1.073 3.207-3.096 0-2.179-1.21-3.395-3.234-3.395h-.349v6.491zM32.941.888l.296 2.545c.071.604.426 2.052-.011 1.858-.276-.121-.502-.776-.726-1.36-.114-.295-.658-1.695-.801-1.799-.685-.501-2.401-1.064-3.561-1.069-3.521-.013-5.847 2.509-5.847 6.982 0 3.208 1.582 7.061 5.607 7.061 1.441 0 4.201-.444 4.952-2.435.339-.901.65-1.704.876-1.459.166.176-.05.899-.15 1.288-.474 1.847-.501 2.406-.65 2.479-1.818.885-4.15 1.177-6.191 1.177-6.485 0-8.726-3.677-8.726-7.353 0-6.379 4.032-9.021 10.286-8.791 1.58.058 3.163.334 4.646.876M13.784 1.171L12.745.819c-.35-.306.075-.391.075-.391s1.5.271 5.24-.036c0 0 .328.062.103.319l-1.228.511c-.798.338-.798.143-.798.994l-.007 7.901c0 6.179-6.47 6.04-7.73 6.04-.6 0-6.488 0-6.488-4.961V2.834c0-1.46.159-1.419-.338-1.591L.071.695S-.183.347.269.368c1.227.06 3.004.316 7.133.024 0 0 .362.085.125.342l-1.201.339c-.95.414-.825.098-.849 1.045l.028 8.247c0 2.022 1.07 4.525 4.395 4.525 4.585 0 4.627-3.854 4.627-4.71l.009-8.167c.049-.77-.052-.551-.752-.842M87.65 14.716l1.6-4.112.281.231c.982.78 2.317 1.443 3.575 1.47 1.126.023 1.675-.268 1.527-1.191-.114-.694-.916-.813-1.417-.911l-1.102-.213c-2.143-.389-3.942-1.672-3.942-4.103 0-3.677 3.262-5.737 6.544-5.737 1.725 0 3.305.424 4.786 1.36l-1.391 3.646c-.762-.533-1.917-1.285-3.376-1.337-.483-.018-1.581.229-1.23 1.312.152.462.833.657 1.252.755l1.241.292c2.324.526 4.002 1.81 4.002 4.432 0 3.699-3.281 5.529-6.542 5.529-1.902 0-4.106-.527-5.808-1.423M80.979.403h5.491v15.504h-5.491zM74.683.402h5.721L74.56 15.905h-4.643L64.09.402h5.704l2.443 9.355z"/></g></svg>