<svg xmlns="http://www.w3.org/2000/svg" width="594" height="71"><path fill="#172A53" d="M67.85 56.801l-18.119-9.778-17.581 9.778V16.408h35.7z"/><path fill="#018DA9" d="M177.537 31.803l2.386 21.745-5.287 6.496-.473-25.742-.641-.303-5.095 2.854 1.502 9.501-20.034 12.753-20.587-12.753c.258-2.858.858-6.388 1.497-9.618l-13.598-7.926 32.13-17.647 33.454 17.647-5.313 2.974.059.019z"/><path fill="#78BD43" d="M260.979 24.382c-2.399-1.62-4.979-2.88-7.439-3.54v9.12c9.119 2.459 13.02 6.12 13.02 12.839v.12c0 6.72-5.16 11.039-12.72 11.819v5.939h-6.24v-6.06c-5.159-.66-10.199-2.7-14.159-5.699l4.68-6.84c3.24 2.46 6.24 4.14 9.78 4.859V37.4c-8.64-2.34-12.899-5.58-12.899-12.72v-.12c0-6.6 5.039-10.979 12.599-11.76V9.322h6.24v3.66c4.26.54 7.859 2.1 11.159 4.38l-4.021 7.02zM247.9 28.461v-8.16c-2.94.36-4.141 1.8-4.141 3.72v.12c.001 1.921.842 3.121 4.141 4.32zm5.64 10.38v8.399c2.819-.42 4.26-1.68 4.26-3.84v-.119c0-1.98-1.021-3.24-4.26-4.44z"/><g fill="#EB8B23"><ellipse cx="462.659" cy="18.435" rx="4.41" ry="4.367"/><ellipse cx="442.608" cy="9.333" rx="4.785" ry="4.736"/><path d="M471.44 41.633l-6.221-4.021-1.051-.669 3.445 13.014-1.912.384 3.611 15.693-2.369.097-5.166-14.737-3.158-.191-6.412 14.067-2.49-1.141 4.689-13.788-1.627-.384 2.777-8.709-3.734-7.273-5.582-2.391-1.883-1.916-2.584 9.079 3.639 12.358v15.503h-3.922l-.77-14.164-2.486-4.307-2.029 5.934-8.115 12.537-2.775-2.01 6.029-12.059-.096-12.154 1.244-2.967-4.881-9.666 6.697-11.579 4.5-2.107c1.338 1.148 3.445 1.15 3.445 1.15.668 1.627 2.775 3.159 2.775 3.159l2.389 10.144 5.457 2.583 2.105-5.55 4.783-2.488c1.533 1.052 3.445.86 3.445.86l2.682 3.254 2.01 8.517 4.783 4.642-1.242 1.296z"/></g><path fill="#C4197F" d="M549.487 54.92h-10.481L528.32 37.864l9.454-2.877 6.577 9.452 18.666-28.153 8.664 5.138z"/><g fill="#DEB209"><path d="M361.549 17.329v-5.626h-2.34v5.626h-8.038v-5.626h-2.342v5.626h-8.037v-5.626h-2.341v5.626H327.28v41.279h45.44V17.329h-11.171zm7.04 37.521h-37.178V27.595h37.178V54.85z"/><path d="M343.395 44.833c-1.394 0-2.509-.622-3.581-1.716l-2.637 2.616c1.479 1.607 3.495 2.658 6.389 2.658 3.345 0 5.789-1.951 5.789-4.995v-.043c0-2.573-1.737-3.752-3.881-4.224l3.58-3.087v-2.959h-10.826v3.366h5.724l-3.43 3.108.579 2.165h1.758c1.586 0 2.443.579 2.443 1.544v.043c0 .923-.729 1.524-1.907 1.524zM354.888 36.836v11.255h4.094V32.977h-3.022l-4.395 1.244.793 3.216z"/></g></svg>