<svg xmlns="http://www.w3.org/2000/svg" width="1466" height="119"><style>.s2{stop-color:#fff;stop-opacity:.1}</style><g id="Layer_1"><linearGradient id="SVGID_1_" gradientUnits="userSpaceOnUse" x1="855.58" y1="51.08" x2="1288.93" y2="51.08"><stop offset="0" stop-color="#A4B354"/><stop offset=".17" stop-color="#B7B44C"/><stop offset=".53" stop-color="#D7B33C"/><stop offset=".59" stop-color="#D8B542"/><stop offset=".85" stop-color="#DBBD5D"/><stop offset="1" stop-color="#DCC167"/></linearGradient><path fill="url(#SVGID_1_)" d="M1288.93 83.94L1182.91-4.15H855.58c25.92 51.16 83.54 100.27 207.18 110.47l226.17-22.38z"/><linearGradient id="SVGID_2_" gradientUnits="userSpaceOnUse" x1="595.77" y1="103.26" x2="667.49" y2="103.26"><stop offset="0" stop-color="#49929F"/><stop offset="1" stop-color="#50A8B0"/></linearGradient><path fill="url(#SVGID_2_)" d="M662.64 120.37c2.14-10.77 3.8-22.16 4.84-34.22 0 0-29.54 12.11-71.71 34.22h66.87z"/><linearGradient id="SVGID_3_" gradientUnits="userSpaceOnUse" x1="578.72" y1="83.84" x2="705.66" y2="83.84"><stop offset="0" stop-color="#408596"/><stop offset=".3" stop-color="#418798"/><stop offset=".56" stop-color="#438E9D"/><stop offset=".81" stop-color="#489AA6"/><stop offset="1" stop-color="#4DA9B1"/></linearGradient><path fill="url(#SVGID_3_)" d="M663.74 91.31c-.91 10.46-1.34 18.34-3.2 27.68h41.56l3.57-70.31c-23.76 13.4-77.04 41.09-126.95 70.32h26.8c36.59-19.18 58.22-27.69 58.22-27.69z"/><path fill="#DDC063" d="M1244.4-.28c15.53 9.85 33.05 16.92 48.13 7.73l35.5 22.28s-3.25-10.47-10.64-30.01h-72.99z"/><path fill="#DFB848" d="M1355.25-4.6c16.41 12.81 64.03 50.75 115.53 98.92l1.69-28.24c-30.89-30.4-57.4-53.29-78.72-70.69h-38.5z"/><linearGradient id="SVGID_4_" gradientUnits="userSpaceOnUse" x1="189.02" y1="-39.94" x2="511.38" y2="153.76"><stop offset="0" stop-color="#172C52"/><stop offset=".18" stop-color="#182F54"/><stop offset=".39" stop-color="#1C385A"/><stop offset=".6" stop-color="#244765"/><stop offset=".83" stop-color="#2F5B76"/><stop offset="1" stop-color="#3B7086"/></linearGradient><path fill="url(#SVGID_4_)" d="M459.06 119c44.88-41.56 93.73-82.68 144.71-119H214.88c-38.08 29.36-75 62.54-110 100.08 0 0-.25 6.87.37 18.92h353.81z"/><linearGradient id="SVGID_5_" gradientUnits="userSpaceOnUse" y1="57.15" x2="114.11" y2="57.15"><stop offset="0" stop-color="#183357"/><stop offset=".34" stop-color="#18375A"/><stop offset="1" stop-color="#17395C"/></linearGradient><path fill="url(#SVGID_5_)" d="M0-.25v114.79C14.96 96.97 31.02 78.9 48.15 60.62c1.69-1.78 25.4-26.38 65.96-60.62L0-.25z"/><linearGradient id="SVGID_6_" gradientUnits="userSpaceOnUse" x1="-1" y1="59.5" x2="215.89" y2="59.5"><stop offset="0" stop-color="#182E54"/><stop offset=".44" stop-color="#193457"/><stop offset="1" stop-color="#193659"/></linearGradient><path fill="url(#SVGID_6_)" d="M106.25 119c-.62-12.04-.37-18.92-.37-18.92C140.88 62.54 177.8 29.36 215.89 0H112.11C71.55 34.24 49.84 56.84 48.15 58.62A1502.765 1502.765 0 0 0-1 113.71V119h107.25z"/><linearGradient id="SVGID_7_" gradientUnits="userSpaceOnUse" x1="457.06" y1="59.5" x2="713.68" y2="59.5"><stop offset="0" stop-color="#32627B"/><stop offset=".65" stop-color="#498F9E"/><stop offset="1" stop-color="#55A9B2"/></linearGradient><path fill="url(#SVGID_7_)" d="M551.21 119c49.23-33.78 103.42-66.91 155.58-90.6l.74-11.35c1.08-5.79 3.2-11.48 6.14-17.05h-111.9c-50.98 36.32-99.83 77.44-144.71 119h94.15z"/><linearGradient id="SVGID_8_" gradientUnits="userSpaceOnUse" x1="550.21" y1="59.5" x2="814.5" y2="59.5"><stop offset="0" stop-color="#32607A"/><stop offset=".2" stop-color="#377288"/><stop offset=".6" stop-color="#43A2B0"/><stop offset="1" stop-color="#60A79C"/></linearGradient><path fill="url(#SVGID_8_)" d="M585.73 119c49.91-29.23 95.18-54.92 118.93-68.31L701.09 119H814.5c-15.67-23.32-27.45-52.66-32.39-89.46 0 0-2.71-10.53 1.85-29.54h-71.29c-2.95 5.58-5.06 11.27-6.14 17.05l-.74 11.35C653.64 52.09 599.45 85.22 550.21 119h35.52z"/><path fill="#DFB848" d="M1458.16 125.42c-19.85-19.08-44.29-39.29-71.5-57.68l-65.4-41.84 74.74 99.53h62.16z"/><linearGradient id="SVGID_9_" gradientUnits="userSpaceOnUse" x1="805.09" y1="-54.75" x2="1434.48" y2="199.54"><stop offset="0" stop-color="#69AFA1"/><stop offset=".2" stop-color="#92B56D"/><stop offset=".21" stop-color="#95B56B"/><stop offset=".41" stop-color="#B7B54F"/><stop offset=".61" stop-color="#CDB439"/><stop offset=".78" stop-color="#D9B32B"/><stop offset=".92" stop-color="#DEB326"/></linearGradient><path fill="url(#SVGID_9_)" d="M1316.26 0c6.94 18.35 9.99 28.17 9.99 28.17l-33.33-23.74c-14.16 8.63-29.66 4.81-44.24-4.44h-74.09l98.06 81.47-209.19 20.69C949.11 92.74 895.83 47.32 871.85 0h-88.89c-4.57 19.01-1.85 29.54-1.85 29.54 4.93 36.8 16.72 66.13 32.39 89.46h583.66l-65.08-84.68 53.98 35.44c23.69 16.02 43.99 32.62 61.27 49.24h19.7V89.73c-46.71-43.69-89.9-78.11-104.79-89.73h-45.98z"/><path fill="#D9B337" d="M1394.63 0c19.34 15.78 44.38 37.53 72.4 65.11V0h-72.4z"/><defs><path id="SVGID_10_" d="M30.57-293.49h1501.5v164.1H30.57z"/></defs><clipPath id="SVGID_11_"><use overflow="visible"/></clipPath><g clip-path="url(#SVGID_11_)"><linearGradient id="SVGID_12_" gradientUnits="userSpaceOnUse" x1="-1234.33" y1="790.49" x2="1028.54" y2="790.49" gradientTransform="translate(1009.284)"><stop offset="0" stop-color="#172A53"/><stop offset=".06" stop-color="#172C55"/><stop offset=".12" stop-color="#183258"/><stop offset=".18" stop-color="#1B3C5F"/><stop offset=".23" stop-color="#204969"/><stop offset=".29" stop-color="#285B76"/><stop offset=".35" stop-color="#30728A"/><stop offset=".41" stop-color="#3A90A3"/><stop offset=".44" stop-color="#40A3B2"/><stop offset=".46" stop-color="#56A5A1"/><stop offset=".51" stop-color="#73AB81"/><stop offset=".56" stop-color="#88B063"/><stop offset=".6" stop-color="#96B349"/><stop offset=".63" stop-color="#9EB639"/><stop offset=".65" stop-color="#A1B734"/><stop offset=".66" stop-color="#A7B731"/><stop offset=".68" stop-color="#B9B628"/><stop offset=".7" stop-color="#C7B51F"/><stop offset=".72" stop-color="#D1B317"/><stop offset=".75" stop-color="#D7B211"/><stop offset=".78" stop-color="#DBB20B"/><stop offset=".88" stop-color="#DEB209"/></linearGradient><path fill-rule="evenodd" clip-rule="evenodd" fill="url(#SVGID_12_)" d="M1344.35 605.33s100.55 70.73 241.57 307.74c0 0 171.47 187.02 451.91 168.84 0 0-163.67-68.23-198.73-212.45 0 0-105.48-351.69-606.2-521.21-64.98-132.3-155.93-203.58-241.25-241.66-79.59-45.54-164.6-66.6-258.01-64.17C777.01 8.36 825.99-18.8 878.3-28.27l128.32 25.6 178.29-50.05L1314.32.56s42.68 35.17-29.26 71.43l183.28 57.19 126.21-27.12 22.93-32.12 85.75 2.4-6.65-107.7-15.56-92.23s-29.51-76.48-226.05-225.41l-51.79-51.72s-21.9-40.62-79.32-77.9c0 0 33.87-9.97 50.88-23.79l-167.24-66.35 107.59-97.02-317.22 41.18c-393-113.24-679.14 29.68-679.14 29.68 95.82-28.48 173.52-41.51 300.68-36.17 0 0 35.92 6.67 35.55 15.01-434.29 25.32-759.77 371.33-759.77 371.33l133.89-4.18C12.42-230-2.53-207.51-15.75-185.63-277.86 20.32-219.51 490.21-219.51 490.21c40.41 128.5 155.6 241.15 243.02 311.87 61.96 100.15 199.92 318.96 287.35 421.62 0 0 109.73 86.02 119.58 193.16 0 0 3.64 93.51 107.3 122.79L888.3 2138.7s64.21 161.9 211.68 100.69l10.61-6.41c116.88-108.78-46.31-241.16-46.31-241.16l-53.43-64.04c-78.61-48.21-90.55-85.47-90.55-85.47 28.17-69.08-33.12-119.48-33.12-119.48-65.01-51.68-230.64-287.76-230.64-287.76 16.32-106.31-64.22-157.08-64.22-157.08-93.48-53.29-129.59-180.08-129.59-180.08-3.94-15.44-15.49-36.75-31.53-61.23-2.53-24.63-2.39-55.54 9.15-78.64 76.38-13.42 119.01-49.59 119.01-49.59 6.92 1.11 13.42 1.89 19.85 2.53 4.12 42 26.42 134.89 137.65 229.05 0 0 46.82 55.09 40.34 145.31 0 0 7.26 128.28 179.21 96.18 0 0 51.68 27.17 85.1 22.88 34.24-4.42 36.36 10.66 64.87-4.84 0 0 98.94-71.49 15.25-243.57 0 0-70.89-90.73-135.56-33.6l-28.25 76.77-90.51-228.72s3.88-39.55-9.59-95.11c29.79 15.69 62.65 23.44 95.44 26.2 51.42 76.29 130.13 180.35 199.6 218.87 0 0 88.16 161.02 95.96 247.18 0 0 8.89 148.26 112.86 176.24 0 0 23.13 186.28 163.35 191.74 0 0 124.2-21.49 20.07-218.87 0 0-38.69-28.84-80.22-41.13 0 0 1.81-78.86-59.05-139.42 0 0-134.85-208.06-147.14-266.65 0 0 9.11-101.79-80.21-239.04l1.34-3.54c29.69 12.15 61.88 21.55 96.63 27.14 18.33 43.6 34.46 90.39 37.69 125.06 0 0 8.69 148.3 112.83 176.37 0 0 23.12 186.25 163.33 191.76 0 0 124.16-21.58 20.04-219.05 0 0-38.74-28.75-80.19-41.06 0 0 1.84-78.77-59.1-139.37 0 0-91.47-141.21-130.62-223.61.2-.09.38-.17.58-.14-7.14-17.24-12.5-32.88-16.93-47.65.46-14.67-.82-63.08-26.97-130.88-.71-3.5-1.58-6.81-2.34-10.37l10.2-26.05 59.48 96.27z"/><linearGradient id="SVGID_13_" gradientUnits="userSpaceOnUse" x1="-1036.65" y1="-321" x2="331.46" y2="414.22" gradientTransform="translate(1009.284)"><stop offset="0" stop-color="#172A53"/><stop offset=".07" stop-color="#172c55" stop-opacity=".97"/><stop offset=".13" stop-color="#193258" stop-opacity=".94"/><stop offset=".19" stop-color="#1d3b5f" stop-opacity=".92"/><stop offset=".25" stop-color="#244868" stop-opacity=".89"/><stop offset=".31" stop-color="#2d5975" stop-opacity=".87"/><stop offset=".36" stop-color="#387088" stop-opacity=".84"/><stop offset=".42" stop-color="#458ea0" stop-opacity=".82"/><stop offset=".46" stop-color="#53aeb9" stop-opacity=".8"/><stop offset=".58" stop-color="#92b56c" stop-opacity=".84"/><stop offset=".59" stop-color="#97b568" stop-opacity=".84"/><stop offset=".66" stop-color="#b4b44d" stop-opacity=".87"/><stop offset=".73" stop-color="#c7b336" stop-opacity=".91"/><stop offset=".79" stop-color="#d3b221" stop-opacity=".94"/><stop offset=".86" stop-color="#dab212" stop-opacity=".97"/><stop offset=".92" stop-color="#DEB209"/></linearGradient><path fill-rule="evenodd" clip-rule="evenodd" fill="url(#SVGID_13_)" d="M1563.53 57.29L1586 22.75l58.11 4.55c-8.52-25.18-18.32-122.56-34.23-141.78-78.72-94.27-191.85-182.78-191.85-182.78-17.34-10.26-32.6-23.12-45.29-35.97 11.92 42.26 14.32 70.06 14.32 70.06l-.16-.18c-.12-.61-10.76-35.48-37.14-96.52l.08.49-.15-.58c-16.24-19.76-20.6-29.1-20.6-29.1-54.28-61.04-202.19-136.29-202.19-136.29l-108.53 1.69 19.18-8.49 139.58-80.29c-142.2 19.2-301.18 74.83-301.18 74.83-223.08-5.54-386.81 38.79-498.77 88.39C198.29-357.01 77.35-224.37 81.73-229.13 36.47-179.45-1.49-131.17-31.44-89.88c-103.69 175.37-202.62 421.27-88.03 600.01 0 0 321.92 277.78 488.81 295.65 0 0 30.43-4.15 35.54-36.04 0 0 87.82 46.75 130.49-14.83 0 0 201.65-328.09 106.86-480.17l-46.24-85.87c-2.17 3.15-4.38 6.23-6.54 9.14-9.08 29.91-32.45 97.98-58.52 100.69l-7.56-9.98c-.13-.28-.13-.59-.32-.84.1.12.11.17.17.36-.06-.19-.11-.29-.2-.54-.63-2-1.36-4.12-1.92-6.19-8.03-25.93-23.15-86.9 58.18-170.36 0 0 35.57-111.91 160.32-178.34 2.64-3.52 4.06-5.45 4.06-5.45l8.48-166.9C691.85-204.56 495.68-89.64 428.6-36.42c49.53-43.6 193.45-165.2 324.69-226.54l.76-11.92c11.94-65.58 146.47-120.38 146.47-120.38s-7.86 5.66-14.9 11.04c-66.2 75.28-54.38 122.46-54.38 122.46 7.69 59.03 31.69 99.79 61.19 127.68 39.23 21.96 110.11 48.31 203.89 28.08 0 0 102.82-17.68 248.89-26.2 12.24-1.54 18.49-2.11 18.49-2.11-67.67 15.16-124.28 54.36-124.28 54.36l24.2 10.24 81.57 20.79c53.41 18.49 47.68 45.41 47.68 45.41l.66 41.21c29.62 8.62 56.24 32.61 66.08 42.26l103.92-22.67z"/><linearGradient id="SVGID_14_" gradientUnits="userSpaceOnUse" x1="254.32" y1="5.46" x2="450.3" y2="5.46" gradientTransform="translate(1009.284)"><stop offset="0" stop-color="#fff" stop-opacity=".35"/><stop offset="1" class="s2"/></linearGradient><path fill-rule="evenodd" clip-rule="evenodd" fill="url(#SVGID_14_)" d="M1392.85-3.51s5.73-26.92-47.68-45.41l-81.57-20.79 116.65 49.81-.82 68.43 77.17 32.11 2.98-.68c-9.85-9.65-36.46-33.65-66.08-42.26l-.65-41.21z"/><linearGradient id="SVGID_15_" gradientUnits="userSpaceOnUse" x1="-977.14" y1="-426.26" x2="294.67" y2="344.33" gradientTransform="translate(1009.284)"><stop offset=".12" stop-color="#172A53"/><stop offset=".2" stop-color="#172c54" stop-opacity=".86"/><stop offset=".25" stop-color="#193157" stop-opacity=".77"/><stop offset=".29" stop-color="#1c395d" stop-opacity=".7"/><stop offset=".32" stop-color="#234465" stop-opacity=".64"/><stop offset=".35" stop-color="#2a536f" stop-opacity=".58"/><stop offset=".38" stop-color="#35667d" stop-opacity=".53"/><stop offset=".41" stop-color="#428090" stop-opacity=".48"/><stop offset=".44" stop-color="#52a0a8" stop-opacity=".43"/><stop offset=".46" stop-color="#63c4c1" stop-opacity=".4"/><stop offset=".47" stop-color="#6ac1b8" stop-opacity=".42"/><stop offset=".48" stop-color="#7abea2" stop-opacity=".46"/><stop offset=".51" stop-color="#8fbb81" stop-opacity=".51"/><stop offset=".53" stop-color="#a5b74f" stop-opacity=".56"/><stop offset=".55" stop-color="#b1b320" stop-opacity=".6"/><stop offset=".65" stop-color="#ceb313" stop-opacity=".53"/><stop offset=".69" stop-color="#deb209" stop-opacity=".5"/><stop offset=".69" stop-color="#deb311" stop-opacity=".5"/><stop offset=".72" stop-color="#e5c04d" stop-opacity=".48"/><stop offset=".74" stop-color="#ebcc77" stop-opacity=".47"/><stop offset=".77" stop-color="#f0d897" stop-opacity=".45"/><stop offset=".8" stop-color="#f4e2b4" stop-opacity=".43"/><stop offset=".83" stop-color="#f7eacc" stop-opacity=".41"/><stop offset=".86" stop-color="#faf2df" stop-opacity=".39"/><stop offset=".9" stop-color="#fdf8ef" stop-opacity=".37"/><stop offset=".94" stop-color="#fffdfa" stop-opacity=".34"/><stop offset="1" stop-color="#fff" stop-opacity=".3"/></linearGradient><path fill-rule="evenodd" clip-rule="evenodd" fill="url(#SVGID_15_)" d="M1196.34-323.31s-112.93-98.47-326.59-146.07c104.21-17.48 331.99 11.21 417.68 82.97 0 0-21.52-44.91-158.32-114.46-58.5-28.76-218.16 1.2-218.16 1.2l100.92-59.93-170.77 39.2c-178.93 18.24-478.74 86.9-701.44 332.76 0 0-6.18 174.02 116.66 310.59C305.55 217.47 357.1 360 307.82 483.3c0 0 221.1-369.47 246.38-408.38 25.25-38.94 53.45-70.7 75.56-98.18 22.22-27.56 73.31-77.34 81.6-175.7 0 0-274.53 131.17-461.17 314.9 0 0 345.21-475.28 657.87-534.63 0 0-50.55 211.09 210.47 233.24l213.62-21.75-135.81-116.11z"/><linearGradient id="SVGID_16_" gradientUnits="userSpaceOnUse" x1="242.88" y1="-110.84" x2="583.86" y2="-110.84" gradientTransform="translate(1009.284)"><stop offset="0" stop-color="#deb209" stop-opacity=".35"/><stop offset=".1" stop-color="#deb312" stop-opacity=".33"/><stop offset=".22" stop-color="#e1b728" stop-opacity=".29"/><stop offset=".36" stop-color="#e4be44" stop-opacity=".26"/><stop offset=".51" stop-color="#e9c767" stop-opacity=".22"/><stop offset=".67" stop-color="#efd48d" stop-opacity=".18"/><stop offset=".83" stop-color="#f5e5bd" stop-opacity=".14"/><stop offset="1" class="s2"/></linearGradient><path fill-rule="evenodd" clip-rule="evenodd" fill="url(#SVGID_16_)" d="M1541.93-37.4l51.21 1.87c-12.08-48.87-54.32-120.75-145.18-183.98l-55.12-37.25L1517.38-90l-83.33-38.19-164.19 30.07a414.58 414.58 0 0 0-17.7 10l57.35 1.91c147.55 39.88 122.46 112.42 122.46 112.42s61.67 13.41 85.76 7.2c23.71-6.16 69.56-30.77 50.73-38.06l-126.93-4.68c-.01 0 78.56-34.02 100.4-28.07z"/><path fill="#D9AB28" d="M147.8 233.06C77.54 180.19 35.54 173.27-42.02 24.76c-2.77 10.76-11.4 61.75 49.68 131.38 23 26.18 86.95 73.51 102.58 85.26 15.6 11.56 38.65 34.49 76.12 85.34 21.96 29.79 77.87 142.98 99.33 197.43 0 0-67.73-238.19-137.89-291.11z"/><path fill-rule="evenodd" clip-rule="evenodd" fill="#FFF" d="M285.7 524.09c-21.47-54.38-77.38-167.56-99.34-197.35-37.47-50.85-60.52-73.78-76.12-85.34-15.63-11.75-79.58-59.08-102.58-85.26C-53.42 86.51-44.79 35.51-42.02 24.76l-1.22 2.38C-140.49 237.8-73.3 469.92-73.3 469.92c10.35-188.82 93.09-258.8 93.09-258.8-81.78 193.38 2.63 305.83 2.63 305.83 124.48 214.4 136.41 65.69 136.41 65.69C298.84 799.3 323.65 743.8 323.65 743.8c16.15-59.53-10.89-150.76-37.95-219.71z"/><linearGradient id="SVGID_17_" gradientUnits="userSpaceOnUse" x1="9.08" y1="-260.38" x2="636.9" y2="-260.38" gradientTransform="translate(1009.284)"><stop offset="0" class="s2"/><stop offset="1" stop-color="#fff" stop-opacity=".15"/></linearGradient><path fill-rule="evenodd" clip-rule="evenodd" fill="url(#SVGID_17_)" d="M1645.99 14.94l-12.85-120.8c-108.71-143.95-217.87-219.4-217.87-219.4l-47.65-41.84s-39.56-56.74-49.62-64.49c-68.52-52.39-185.89-116.69-185.89-116.69l-11.39 2.99-83.17 13.12-19.18 8.49 108.53-1.69s147.92 75.25 202.19 136.29c0 0 4.36 9.34 20.6 29.1l.15.58-.08-.49c26.38 61.04 37.02 95.91 37.14 96.52l.16.18s-2.4-27.81-14.32-70.06c12.7 12.85 27.96 25.72 45.29 35.97 0 0 113.13 88.52 191.85 182.78 15.91 19.22 25.7 116.6 34.23 141.78l2.08.21-.2-12.55z"/></g></g></svg>