<svg xmlns="http://www.w3.org/2000/svg" width="751" height="150"><path fill="#D8DFE7" d="M74.988 8.56c-37.563 0-68.013 30.45-68.013 68.012s30.45 68.013 68.013 68.013 68.01-30.449 68.01-68.013c0-37.562-30.447-68.012-68.01-68.012zm0 126.939c-32.547 0-58.932-26.381-58.932-58.929 0-32.544 26.385-58.927 58.932-58.927 32.542 0 58.925 26.383 58.925 58.927 0 32.548-26.383 58.929-58.925 58.929z"/><circle fill="#1B75BB" cx="75.002" cy="73.155" r="66.357"/><path fill="#FFF" d="M74.988 5C37.424 5 6.975 35.449 6.975 73.012s30.45 68.011 68.013 68.011 68.01-30.448 68.01-68.011S112.551 5 74.988 5zm0 126.938c-32.547 0-58.932-26.379-58.932-58.927 0-32.546 26.385-58.928 58.932-58.928 32.542 0 58.925 26.382 58.925 58.928 0 32.548-26.383 58.927-58.925 58.927z"/><path fill="#FFF" d="M65.784 105.426v-29.54h-9.427v-12.57h9.427v-9.425s.633-13.829 12.574-13.829h11.94v11.94h-8.172s-4.4 1.257-4.4 3.769v7.544h12.572v12.569H77.101v29.54H65.784v.002z"/><path fill="#D8DFE7" d="M224.8 9.199c-37.564 0-68.014 30.45-68.014 68.012s30.45 68.014 68.014 68.014c37.562 0 68.011-30.449 68.011-68.014 0-37.562-30.449-68.012-68.011-68.012zm0 126.94c-32.547 0-58.931-26.382-58.931-58.929 0-32.545 26.384-58.928 58.931-58.928 32.543 0 58.926 26.383 58.926 58.928 0 32.547-26.383 58.929-58.926 58.929z"/><circle fill="#26A9E0" cx="224.814" cy="73.794" r="66.357"/><path fill="#FFF" d="M224.8 5.639c-37.564 0-68.014 30.449-68.014 68.012s30.45 68.012 68.014 68.012c37.562 0 68.011-30.449 68.011-68.012S262.362 5.639 224.8 5.639zm0 126.939c-32.547 0-58.931-26.38-58.931-58.927 0-32.546 26.384-58.928 58.931-58.928 32.543 0 58.926 26.382 58.926 58.928 0 32.547-26.383 58.927-58.926 58.927z"/><path fill="#FFF" d="M246.796 55.61s-7.479-9.523-14.966-4.763c-7.485 4.763-6.125 15.65-6.125 15.65s-13.61-3.373-18.368-8.493c-4.767-5.11-7.577-6.961-5.901 2.145 1.785 9.652 4.535 9.521 4.535 9.521l-9.978.458s13.611 8.845 16.333 9.526c2.719.681-6.806-2.043-8.165 2.718-1.366 4.771 7.934 6.579 13.381 6.579 5.442 0-11.12 5.441-17.803 6.804 0 0 55.226 12.248 47.057-33.34l6.808-1.358-4.086-3.174 4.086-3.631-6.808 1.358z"/><g><path fill="#D8DFE7" d="M374.749 8.758c-37.564 0-68.014 30.45-68.014 68.012 0 37.563 30.449 68.014 68.014 68.014 37.562 0 68.01-30.449 68.01-68.014 0-37.562-30.448-68.012-68.01-68.012zm0 126.939c-32.549 0-58.932-26.381-58.932-58.928 0-32.545 26.383-58.929 58.932-58.929 32.542 0 58.924 26.383 58.924 58.929 0 32.547-26.382 58.928-58.924 58.928z"/><radialGradient id="a" cx="331.584" cy="140.133" r="137.553" gradientUnits="userSpaceOnUse"><stop offset=".117" stop-color="#ffe794"/><stop offset=".284" stop-color="#ffb664"/><stop offset=".467" stop-color="#ff8a39"/><stop offset=".681" stop-color="#f84f7f"/><stop offset="1" stop-color="#5149d7"/></radialGradient><circle fill="url(#a)" cx="374.762" cy="73.354" r="66.358"/><path fill="#FFF" d="M374.749 5.198c-37.564 0-68.014 30.449-68.014 68.012s30.449 68.013 68.014 68.013c37.562 0 68.01-30.449 68.01-68.013 0-37.563-30.448-68.012-68.01-68.012zm0 126.939c-32.549 0-58.932-26.38-58.932-58.927 0-32.546 26.383-58.928 58.932-58.928 32.542 0 58.924 26.382 58.924 58.928 0 32.547-26.382 58.927-58.924 58.927z"/><path fill="#FFF" d="M375.021 58.826c-8.096 0-14.66 6.563-14.66 14.661 0 8.096 6.564 14.66 14.66 14.66 8.098 0 14.66-6.564 14.66-14.66.001-8.098-6.562-14.661-14.66-14.661zm0 24.291c-5.318 0-9.631-4.312-9.631-9.631s4.313-9.631 9.631-9.631c5.319 0 9.633 4.312 9.633 9.631s-4.313 9.631-9.633 9.631z"/><path fill="#FFF" d="M387.148 102.228c-.175 0-.304-.004-.383-.006h-23.728c-.863.03-7.419.109-12.143-4.368-3.127-2.961-4.711-7.145-4.711-12.434V62.676c-.077-1.082-.323-7.518 4.065-12.354 3.149-3.47 7.809-5.23 13.845-5.23h21.616c6.037 0 10.697 1.76 13.845 5.23 4.39 4.835 4.143 11.271 4.065 12.354V85.42c0 5.289-1.585 9.473-4.712 12.434-4.284 4.06-10.075 4.374-11.759 4.374zm-24.232-5.143l24.039.004c.043.002 5.121.191 8.448-2.991 2.044-1.952 3.081-4.873 3.081-8.678V62.452l.011-.124c.005-.04.408-5.115-2.772-8.586-2.137-2.332-5.506-3.514-10.014-3.514h-21.616c-4.507 0-7.875 1.182-10.013 3.514-3.18 3.471-2.776 8.546-2.772 8.598l.013.124-.002.113V85.42c0 3.822 1.045 6.751 3.108 8.706 3.319 3.146 8.37 2.965 8.42 2.963l.069-.004z"/><circle fill="#FFF" cx="390.311" cy="58.168" r="3.676"/></g><g><path fill="#D8DFE7" d="M524.993 8.318c-37.563 0-68.013 30.45-68.013 68.013s30.448 68.012 68.013 68.012c37.562 0 68.011-30.448 68.011-68.012 0-37.563-30.448-68.013-68.011-68.013zm0 126.939c-32.547 0-58.933-26.381-58.933-58.927 0-32.547 26.386-58.929 58.933-58.929 32.542 0 58.926 26.382 58.926 58.929 0 32.546-26.384 58.927-58.926 58.927z"/><circle fill="#B92031" cx="525.007" cy="72.914" r="66.357"/><path fill="#FFF" d="M543.587 52.015h-39.914c-5.646 0-10.225 4.575-10.225 10.222v21.908c0 5.646 4.578 10.225 10.225 10.225h39.914c5.648 0 10.224-4.578 10.224-10.225V62.237c0-5.647-4.576-10.222-10.224-10.222zm-27.856 33.241l-.196-24.128L536.384 72.5l-20.653 12.756z"/><path fill="#FFF" d="M524.993 4.758c-37.563 0-68.013 30.45-68.013 68.012s30.448 68.013 68.013 68.013c37.562 0 68.011-30.45 68.011-68.013S562.556 4.758 524.993 4.758zm0 126.939c-32.547 0-58.933-26.381-58.933-58.927s26.386-58.928 58.933-58.928c32.542 0 58.926 26.382 58.926 58.928 0 32.546-26.384 58.927-58.926 58.927z"/></g><g><path fill="#D8DFE7" d="M674.989 9.098c-37.564 0-68.016 30.449-68.016 68.011 0 37.563 30.45 68.014 68.016 68.014 37.562 0 68.01-30.45 68.01-68.014 0-37.562-30.448-68.011-68.01-68.011zm0 126.939c-32.548 0-58.934-26.38-58.934-58.928 0-32.545 26.386-58.927 58.934-58.927 32.541 0 58.923 26.382 58.923 58.927 0 32.548-26.382 58.928-58.923 58.928z"/><circle fill="#EC1C24" cx="675.003" cy="73.694" r="66.357"/><path fill="#FFF" d="M674.989 5.538c-37.564 0-68.016 30.45-68.016 68.013s30.45 68.012 68.016 68.012c37.562 0 68.01-30.448 68.01-68.012 0-37.563-30.448-68.013-68.01-68.013zm0 126.939c-32.548 0-58.934-26.379-58.934-58.927 0-32.547 26.386-58.929 58.934-58.929 32.541 0 58.923 26.382 58.923 58.929 0 32.548-26.382 58.927-58.923 58.927z"/><g fill="#FFF"><path d="M672.604 73.099c5.229-3.763 6.497-11.669 1.674-16.305 0 0-.206-2.928 5.223-4.181 0 0-30.223-4.313-27.591 13.38 0 0 1.845 6.304 8.78 7.94 9.844 2.32-4.183 7.525-6.274 9.2-2.087 1.672-5.851 4.941-5.015 9.366.833 4.433 7.521 8.19 17.138 6.937 9.616-1.256 15.051-8.777 11.296-15.05-3.771-6.268-10.45-7.525-5.231-11.287zm-11.5-16.314c5.021-3.345 9.18 5.025 9.18 5.025s2.318 11.289-4.582 10.447c-6.9-.841-9.615-12.123-4.598-15.472zm3.287 38.883c-6.328.415-9.977-5.434-5.861-9.617 4.109-4.183 8.009-5.016 8.009-5.016s5.854 2.51 7.739 7.324c1.875 4.823-3.56 6.89-9.887 7.309zM689.942 53.053h2.383v20.771h-2.383z"/><path d="M681.175 62.335h19.55v2.198h-19.55z"/></g></g></svg>