<svg xmlns="http://www.w3.org/2000/svg" width="1500" height="2573.388"><path clip-rule="evenodd" fill="none" stroke="#CDD5E0" stroke-miterlimit="10" d="M1314.844 898.783s100.55 70.732 241.57 307.737c0 0 171.466 187.021 451.905 168.842 0 0-163.665-68.23-198.729-212.451 0 0-105.481-351.694-606.202-521.208-64.982-132.303-155.931-203.577-241.246-241.663-79.588-45.546-164.604-66.605-258.007-64.169 43.369-34.064 92.35-61.218 144.66-70.692l128.322 25.604 178.288-50.052 129.414 53.282s42.678 35.171-29.262 71.429l183.284 57.191 126.215-27.12 22.927-32.119 85.748 2.403-6.649-107.703-15.563-92.226s-29.507-76.475-226.05-225.405l-51.785-51.722s-21.902-40.622-79.324-77.902c0 0 33.867-9.97 50.881-23.788l-167.243-66.353 107.591-97.017-317.223 41.178c-393-113.243-679.139 29.676-679.139 29.676 95.818-28.481 173.518-41.513 300.676-36.175 0 0 35.919 6.671 35.545 15.011C191.161-301.305-134.323 44.7-134.323 44.7L-.434 40.516c-16.655 22.937-31.598 45.428-44.822 67.307-262.114 205.943-203.761 675.839-203.761 675.839C-208.609 912.167-93.418 1024.815-6 1095.529c61.961 100.152 199.917 318.958 287.354 421.616 0 0 109.727 86.023 119.585 193.16 0 0 3.641 93.515 107.298 122.792L858.8 2432.15s64.209 161.899 211.677 100.695l10.607-6.413c116.88-108.784-46.307-241.161-46.307-241.161l-53.429-64.04c-78.613-48.206-90.546-85.469-90.546-85.469 28.171-69.08-33.115-119.479-33.115-119.479-65.007-51.676-230.641-287.765-230.641-287.765 16.323-106.309-64.219-157.077-64.219-157.077-93.481-53.294-129.592-180.081-129.592-180.081-3.939-15.438-15.485-36.746-31.532-61.229-2.533-24.632-2.389-55.545 9.149-78.636 76.377-13.417 119.007-49.592 119.007-49.592 6.92 1.107 13.416 1.892 19.851 2.527 4.117 41.996 26.417 134.893 137.65 229.047 0 0 46.818 55.086 40.337 145.312 0 0 7.256 128.277 179.211 96.183 0 0 51.677 27.174 85.102 22.875 34.242-4.418 36.364 10.66 64.866-4.837 0 0 98.942-71.488 15.253-243.573 0 0-70.893-90.729-135.562-33.6l-28.252 76.775-90.509-228.722s3.884-39.55-9.592-95.115c29.785 15.694 62.65 23.44 95.444 26.197 51.415 76.295 130.127 180.354 199.596 218.865 0 0 88.162 161.016 95.96 247.182 0 0 8.886 148.262 112.856 176.236 0 0 23.129 186.275 163.351 191.738 0 0 124.202-21.495 20.073-218.871 0 0-38.692-28.84-80.221-41.131 0 0 1.812-78.859-59.049-139.423 0 0-134.854-208.059-147.145-266.651 0 0 9.105-101.789-80.213-239.042l1.34-3.541a438.315 438.315 0 0 0 96.633 27.141c18.328 43.604 34.455 90.394 37.686 125.059 0 0 8.694 148.303 112.828 176.365 0 0 23.118 186.255 163.33 191.758 0 0 124.156-21.578 20.039-219.047 0 0-38.741-28.747-80.19-41.061 0 0 1.84-78.772-59.097-139.368 0 0-91.474-141.214-130.624-223.608.198-.094.383-.172.577-.141-7.142-17.236-12.504-32.883-16.927-47.645.463-14.674-.82-63.084-26.966-130.884-.705-3.5-1.577-6.805-2.342-10.364l10.203-26.05 59.488 96.294z"/><g clip-rule="evenodd" fill="none" stroke="#CDD5E0" stroke-miterlimit="10"><path d="M1534.022 350.737l22.467-34.538 58.108 4.547c-8.522-25.182-18.321-122.56-34.227-141.782-78.716-94.266-191.847-182.783-191.847-182.783-17.336-10.257-32.596-23.122-45.292-35.974 11.92 42.258 14.322 70.063 14.322 70.063l-.157-.181c-.117-.61-10.764-35.477-37.141-96.519l.078.489-.146-.577c-16.242-19.756-20.603-29.1-20.603-29.1-54.277-61.045-202.192-136.294-202.192-136.294l-108.533 1.691 19.181-8.491 139.575-80.287c-142.195 19.204-301.177 74.831-301.177 74.831-223.084-5.537-386.807 38.785-498.775 88.391C168.78-63.556 47.844 69.079 52.228 64.317 6.965 114.003-30.995 162.283-60.947 203.569c-103.686 175.37-202.623 421.268-88.026 600.013 0 0 321.917 277.777 488.813 295.648 0 0 30.428-4.15 35.536-36.039 0 0 87.821 46.755 130.485-14.834 0 0 201.65-328.089 106.856-480.168l-46.236-85.871a347.156 347.156 0 0 1-6.539 9.145c-9.083 29.911-32.447 97.98-58.518 100.692l-7.564-9.982c-.126-.284-.134-.588-.316-.84.102.121.11.172.167.358-.057-.186-.111-.286-.205-.545-.629-1.999-1.359-4.121-1.921-6.188-8.032-25.926-23.146-86.897 58.175-170.355 0 0 35.568-111.91 160.325-178.345 2.637-3.516 4.057-5.45 4.057-5.45l8.479-166.904c-60.294 34.982-256.46 149.896-323.539 203.12 49.533-43.601 193.451-165.196 324.693-226.541l.759-11.925c11.941-65.576 146.47-120.38 146.47-120.38s-7.861 5.657-14.904 11.041C789.901-15.499 801.717 31.68 801.717 31.68c7.689 59.03 31.69 99.789 61.189 127.682 39.228 21.955 110.114 48.315 203.889 28.085 0 0 102.819-17.678 248.889-26.2 12.241-1.543 18.491-2.109 18.491-2.109-67.675 15.155-124.279 54.364-124.279 54.364l24.197 10.237 81.565 20.791c53.411 18.488 47.684 45.405 47.684 45.405l.659 41.209c29.619 8.616 56.235 32.612 66.081 42.265l103.94-22.672z"/><path d="M1363.342 289.935s5.728-26.917-47.684-45.405l-81.565-20.791 116.654 49.807-.816 68.429 77.172 32.109 2.979-.677c-9.846-9.652-36.462-33.648-66.081-42.265l-.659-41.207z"/></g><path clip-rule="evenodd" fill="none" stroke="#CDD5E0" stroke-miterlimit="10" d="M1166.835-29.861s-112.927-98.469-326.592-146.072c104.211-17.481 331.991 11.212 417.676 82.966 0 0-21.523-44.911-158.315-114.457-58.505-28.762-218.159 1.2-218.159 1.2l100.916-59.931-170.77 39.209C632.66-208.702 332.849-140.047 110.148 105.81c0 0-6.177 174.018 116.656 310.592 49.235 94.516 100.789 237.052 51.505 360.349 0 0 221.101-369.469 246.378-408.383 25.248-38.938 53.453-70.697 75.564-98.181 22.224-27.556 73.312-77.339 81.601-175.698 0 0-274.532 131.174-461.17 314.897 0 0 345.205-475.279 657.871-534.627 0 0-50.549 211.089 210.475 233.243l213.615-21.748-135.808-116.115z"/><path clip-rule="evenodd" fill="none" stroke="#CDD5E0" d="M525.398 927.911s-112.185 232.969-160.646 1.722c0 0-9.168-209.318 109.914-307.823 0 0 37.902 53.048 73.788-15.647-.001 0 55.38 99.04-23.056 321.748zM108.362 1130.615s230.962 120.225 317.595 348.378c0 0 30.128 84.166 64.343 93.566 0 0 95.131 50.987 71.908 146.396 0 0-49.094 83.463-108.771 34.313 0 0-29.372-163.548-69.604-209.577-.001.001-198.518-174.639-275.471-413.076z"/><path clip-rule="evenodd" fill="none" stroke="#CDD5E0" d="M178.447 1189.337s95.381 98.609 208.98 307.263c.001 0-185.742-105.08-208.98-307.263zM610.642 1937.152s125.369 234.314 173.822 253.96c0 0 56.701 92.451 54.312 131.72 0 0 37.364 141.194 123.797 147.112 0 0 132.103-6.694 16.167-175.971 0 0-89.733-86.138-135.838-145.021 0 0 31.84-50.567-38.159-109.301l-123.077-99.022c0-.002-58.479-57.032-71.024-3.477z"/><path clip-rule="evenodd" fill="none" stroke="#CDD5E0" d="M659.366 1980.641s75.414 198.527 152.033 190.985c0 0 23.782-23.909-30.207-84.217-.001 0-59.737-73.052-121.826-106.768zM811.807 2220.895s49.261 238.071 142.672 225.25c0 0 53.327-35.17-7.71-100.555 0 0-116.657-89.961-134.962-124.695zM549.966 1157.604s120.413 233.476 202.521 266.487l32.308 120.198s66.11-64.811 15.544-195.855c0 0-137.844-224.531-250.373-190.83zM256.194 817.542c-21.467-54.375-77.38-167.562-99.339-197.353-37.47-50.847-60.52-73.779-76.118-85.339-15.63-11.753-79.584-59.077-102.584-85.26-61.076-69.631-52.447-120.627-49.677-131.384l-1.217 2.378c-97.252 210.656-30.06 442.776-30.06 442.776 10.353-188.822 93.094-258.8 93.094-258.8-81.784 193.383 2.634 305.829 2.634 305.829 124.478 214.399 136.411 65.689 136.411 65.689 139.993 216.677 164.802 161.169 164.802 161.169 16.155-59.53-10.883-150.762-37.946-219.705z"/><path clip-rule="evenodd" fill="none" stroke="#CDD5E0" stroke-miterlimit="10" d="M1022.507 220.829c156.568-39.868 254.719-54.683 293.177-59.582-146.069 8.521-248.889 26.2-248.889 26.2-93.774 20.23-164.661-6.13-203.889-28.085 66.02 62.499 159.601 61.467 159.601 61.467z"/></svg>