<svg xmlns="http://www.w3.org/2000/svg" width="21.5" height="388.011"><path fill="#335379" d="M16.814 0l-1.183.947 3.34 4.175H0v1.515h19.043l-3.43 4.652 1.22.899 4.667-6.33z"/><path fill="#BA2031" d="M16.814 23.489l-1.183.947 3.34 4.174H0v1.515h19.043l-3.43 4.653 1.22.899 4.667-6.33z"/><path fill="#C5197F" d="M16.814 46.978l-1.183.947 3.34 4.175H0v1.515h19.043l-3.43 4.652 1.22.899 4.667-6.33z"/><path fill="#EB8B23" d="M16.814 70.467l-1.183.947 3.34 4.174H0v1.516h19.043l-3.43 4.652 1.22.899 4.667-6.33z"/><path fill="#78BE20" d="M16.814 117.445l-1.183.948 3.34 4.174H0v1.515h19.043l-3.43 4.652 1.22.899 4.667-6.33z"/><path fill="#00B5E2" d="M16.814 140.935l-1.183.946 3.34 4.174H0v1.515h19.043l-3.43 4.653 1.22.899 4.667-6.329z"/><path fill="#008EAA" d="M16.814 164.424l-1.183.946 3.34 4.175H0v1.516h19.043l-3.43 4.652 1.22.898 4.667-6.33z"/><path fill="#652667" d="M16.814 187.912l-1.183.947 3.34 4.174H0v1.516h19.043l-3.43 4.652 1.22.9 4.667-6.33z"/><path fill="#C26E60" d="M16.814 211.401l-1.183.947 3.34 4.173H0v1.516h19.043l-3.43 4.652 1.22.9 4.667-6.329z"/><path fill="#E6A65D" d="M16.814 234.891l-1.183.946 3.34 4.175H0v1.515h19.043l-3.43 4.653 1.22.898 4.667-6.33z"/><path fill="#9CAF88" d="M16.814 258.379l-1.183.947 3.34 4.174H0v1.516h19.043l-3.43 4.652 1.22.899 4.667-6.33z"/><path fill="#00573F" d="M16.814 281.868l-1.183.946 3.34 4.175H0v1.516h19.043l-3.43 4.652 1.22.899 4.667-6.33z"/><path fill="#5B7F95" d="M16.814 305.356l-1.183.948 3.34 4.174H0v1.515h19.043l-3.43 4.653 1.22.899 4.667-6.33z"/><path fill="#B1B3B3" d="M16.814 328.845l-1.183.947 3.34 4.174H0v1.515h19.043l-3.43 4.653 1.22.899 4.667-6.33z"/><path fill="#ACA39A" d="M16.814 352.334l-1.183.946 3.34 4.175H0v1.516h19.043l-3.43 4.652 1.22.898 4.667-6.33z"/><path fill="#4F2C1D" d="M16.814 375.822l-1.183.948 3.34 4.173H0v1.516h19.043l-3.43 4.652 1.22.9 4.667-6.33z"/><path fill="#FFCD00" d="M16.814 93.956l-1.183.946 3.34 4.176H0v1.515h19.043l-3.43 4.652 1.22.9 4.667-6.331z"/></svg>